<?xml version="1.0" encoding="utf-8" ?>
<svg baseProfile="tiny" height="1024" version="1.2" width="1024" xmlns="http://www.w3.org/2000/svg" xmlns:ev="http://www.w3.org/2001/xml-events" xmlns:xlink="http://www.w3.org/1999/xlink"><defs /><circle cx="512.0" cy="512.0" fill="#000000" r="512.0" /><polygon fill="#ffffff" points="415,240 414,241 409,241 408,242 405,242 404,243 400,243 399,244 396,244 395,245 393,245 392,246 389,246 388,247 387,247 386,248 385,248 384,249 382,249 381,250 380,250 379,251 377,251 375,253 373,253 372,254 371,254 369,256 368,256 367,257 366,257 364,259 363,259 361,261 360,261 359,262 358,262 354,266 353,266 349,270 348,270 335,283 335,284 331,288 331,289 328,292 328,293 326,295 326,296 323,299 323,300 322,301 322,302 321,303 321,304 320,305 320,306 318,308 318,309 317,310 317,311 316,312 316,313 315,314 315,316 313,318 313,320 312,321 312,323 311,324 311,325 310,326 310,328 309,329 309,330 308,331 308,334 307,335 307,336 306,337 306,341 305,342 305,344 304,345 304,349 303,350 303,355 302,356 302,357 300,359 297,359 296,360 293,360 292,361 289,361 288,362 285,362 284,363 281,363 280,364 279,364 278,365 276,365 275,366 273,366 271,368 269,368 267,370 265,370 264,371 263,371 262,372 261,372 259,374 258,374 257,375 256,375 254,377 253,377 251,379 250,379 247,382 246,382 243,385 242,385 242,386 241,387 240,387 232,395 232,396 231,397 230,397 230,398 226,402 226,403 223,406 223,407 221,409 221,410 219,412 219,413 217,415 217,416 216,417 216,418 214,420 214,421 213,422 213,423 212,424 212,426 211,427 211,428 210,429 210,430 209,431 209,433 208,434 208,435 207,436 207,438 206,439 206,442 205,443 205,445 204,446 204,449 203,450 203,452 202,453 202,458 201,459 201,464 200,465 200,494 201,495 201,501 202,502 202,508 203,509 203,512 204,513 204,516 205,517 205,520 206,521 206,524 207,525 207,527 208,528 208,530 209,531 209,532 210,533 210,535 211,536 211,537 212,538 212,540 213,541 213,542 214,543 214,544 215,545 215,547 217,549 217,550 218,551 218,552 219,553 219,554 221,556 221,557 222,558 222,559 224,561 224,562 225,563 225,564 227,566 227,567 230,570 230,571 232,573 232,574 235,577 235,578 239,582 239,583 244,588 244,589 253,598 253,599 261,607 261,608 262,608 263,609 263,610 267,614 267,615 268,616 268,617 269,618 269,622 270,623 270,661 271,662 271,673 272,674 272,681 273,682 273,687 274,688 274,692 275,693 275,697 276,698 276,700 277,701 277,704 278,705 278,708 279,709 279,710 280,711 280,714 282,716 282,718 283,719 283,720 284,721 284,723 285,724 285,725 286,726 286,728 287,729 287,730 289,732 289,733 290,734 290,735 291,736 291,737 292,738 292,739 294,741 294,742 296,744 296,745 298,747 298,748 301,751 301,752 305,756 305,757 317,769 318,769 323,774 324,774 328,778 329,778 331,780 332,780 333,781 334,781 337,784 338,784 340,786 341,786 342,787 343,787 344,788 345,788 346,789 347,789 349,791 351,791 352,792 353,792 354,793 355,793 356,794 358,794 359,795 360,795 361,796 363,796 364,797 366,797 367,798 368,798 369,799 371,799 372,800 375,800 376,801 378,801 379,802 383,802 384,803 389,803 390,804 393,804 394,805 401,805 402,806 407,806 408,807 439,807 440,806 445,806 446,805 455,805 456,804 460,804 461,803 466,803 467,802 471,802 472,801 476,801 477,800 482,800 483,799 487,799 488,798 495,798 496,797 526,797 527,798 535,798 536,799 539,799 540,800 546,800 547,801 549,801 550,802 556,802 557,803 561,803 562,804 567,804 568,805 576,805 577,806 582,806 583,807 615,807 616,806 621,806 622,805 630,805 631,804 635,804 636,803 640,803 641,802 644,802 645,801 648,801 649,800 651,800 652,799 654,799 655,798 657,798 658,797 660,797 661,796 662,796 663,795 665,795 666,794 667,794 668,793 670,793 672,791 674,791 675,790 676,790 678,788 679,788 680,787 681,787 683,785 684,785 685,784 686,784 688,782 689,782 690,781 691,781 694,778 695,778 697,776 698,776 703,771 704,771 718,757 718,756 722,752 722,751 725,748 725,747 727,745 727,744 729,742 729,741 730,740 730,739 732,737 732,736 733,735 733,734 734,733 734,732 735,731 735,730 736,729 736,728 737,727 737,726 738,725 738,724 739,723 739,722 740,721 740,719 741,718 741,716 742,715 742,714 743,713 743,711 744,710 744,709 745,708 745,705 746,704 746,702 747,701 747,699 748,698 748,693 749,692 749,689 750,688 750,682 751,681 751,674 752,673 752,659 753,658 753,622 754,621 754,618 755,617 755,616 756,615 756,614 758,612 758,611 764,605 764,604 765,603 766,603 766,602 777,591 777,590 778,589 779,589 779,588 784,583 784,582 788,578 788,577 790,575 790,574 793,571 793,570 796,567 796,566 798,564 798,563 800,561 800,560 801,559 801,558 802,557 802,556 804,554 804,553 805,552 805,551 806,550 806,549 807,548 807,547 808,546 808,545 809,544 809,543 810,542 810,541 811,540 811,539 812,538 812,535 813,534 813,533 814,532 814,531 815,530 815,528 816,527 816,524 817,523 817,521 818,520 818,518 819,517 819,514 820,513 820,509 821,508 821,502 822,501 822,496 823,495 823,469 822,468 822,461 821,460 821,454 820,453 820,450 819,449 819,447 818,446 818,443 817,442 817,440 816,439 816,437 815,436 815,435 814,434 814,432 813,431 813,429 812,428 812,427 811,426 811,425 810,424 810,423 809,422 809,421 808,420 808,419 807,418 807,417 805,415 805,414 804,413 804,412 802,410 802,409 799,406 799,405 797,403 797,402 792,397 792,396 783,387 782,387 777,382 776,382 773,379 772,379 770,377 769,377 768,376 767,376 765,374 764,374 763,373 762,373 760,371 758,371 757,370 756,370 755,369 754,369 753,368 752,368 751,367 750,367 749,366 747,366 746,365 745,365 744,364 741,364 740,363 738,363 737,362 734,362 733,361 729,361 728,360 726,360 725,359 722,359 721,358 721,357 720,356 720,351 719,350 719,346 718,345 718,342 717,341 717,337 716,336 716,334 715,333 715,331 714,330 714,328 713,327 713,326 712,325 712,323 711,322 711,321 710,320 710,319 709,318 709,316 708,315 708,314 707,313 707,312 706,311 706,310 705,309 705,308 704,307 704,306 703,305 703,304 701,302 701,301 700,300 700,299 697,296 697,295 695,293 695,292 692,289 692,288 688,284 688,283 674,269 673,269 670,266 669,266 666,263 665,263 663,261 662,261 660,259 659,259 658,258 657,258 655,256 654,256 653,255 652,255 651,254 650,254 648,252 647,252 646,251 644,251 643,250 642,250 641,249 639,249 638,248 637,248 636,247 634,247 633,246 631,246 630,245 628,245 627,244 624,244 623,243 622,243 621,242 615,242 614,241 609,241 608,240 582,240 581,241 574,241 573,242 569,242 568,243 565,243 564,244 561,244 560,245 558,245 557,246 556,246 555,247 553,247 552,248 550,248 548,250 546,250 545,251 544,251 543,252 542,252 541,253 540,253 539,254 538,254 537,255 536,255 534,257 533,257 531,259 530,259 528,261 527,261 523,265 522,265 518,269 517,269 512,274 510,274 509,273 509,272 508,272 507,271 507,270 506,269 505,269 501,265 500,265 497,262 496,262 493,259 492,259 490,257 489,257 488,256 487,256 485,254 484,254 483,253 482,253 481,252 480,252 479,251 478,251 477,250 475,250 474,249 473,249 472,248 471,248 470,247 468,247 467,246 465,246 464,245 462,245 461,244 458,244 457,243 454,243 453,242 450,242 449,241 441,241 440,240" stroke="#000000" /><polygon fill="#000000" points="415,261 416,260 443,260 444,261 447,261 448,262 453,262 454,263 455,263 456,264 459,264 460,265 461,265 462,266 463,266 464,267 466,267 467,268 468,268 469,269 470,269 471,270 472,270 473,271 474,271 476,273 478,273 480,275 481,275 484,278 485,278 488,281 489,281 501,293 502,293 503,294 504,294 505,295 507,295 508,296 515,296 516,295 518,295 519,294 520,294 521,293 522,293 530,285 531,285 531,284 532,283 533,283 538,278 539,278 541,276 542,276 544,274 545,274 546,273 547,273 549,271 550,271 551,270 552,270 553,269 554,269 555,268 556,268 557,267 558,267 559,266 561,266 562,265 563,265 564,264 566,264 567,263 570,263 571,262 574,262 575,261 579,261 580,260 606,260 607,261 613,261 614,262 617,262 618,263 620,263 621,264 623,264 624,265 627,265 628,266 630,266 632,268 634,268 635,269 636,269 637,270 638,270 639,271 640,271 641,272 642,272 644,274 646,274 648,276 649,276 651,278 652,278 656,282 657,282 660,285 661,285 674,298 674,299 678,303 678,304 680,306 680,307 682,309 682,310 683,311 683,312 685,314 685,315 686,316 686,317 687,318 687,319 688,320 688,321 689,322 689,323 690,324 690,325 691,326 691,327 692,328 692,329 693,330 693,332 694,333 694,334 695,335 695,338 696,339 696,341 697,342 697,344 698,345 698,349 699,350 699,355 700,356 700,358 701,359 701,364 702,365 702,367 704,369 704,370 705,371 705,372 706,373 707,373 710,376 711,376 712,377 714,377 715,378 719,378 720,379 723,379 724,380 727,380 728,381 731,381 732,382 735,382 736,383 738,383 739,384 740,384 741,385 743,385 744,386 745,386 746,387 747,387 748,388 749,388 750,389 751,389 753,391 754,391 756,393 757,393 759,395 760,395 761,396 762,396 766,400 767,400 779,412 779,413 783,417 783,418 785,420 785,421 787,423 787,424 789,426 789,428 791,430 791,431 792,432 792,433 793,434 793,436 794,437 794,438 795,439 795,440 796,441 796,443 797,444 797,446 798,447 798,449 799,450 799,452 800,453 800,455 801,456 801,462 802,463 802,469 803,470 803,491 802,492 802,500 801,501 801,505 800,506 800,509 799,510 799,513 798,514 798,516 797,517 797,520 796,521 796,522 795,523 795,525 794,526 794,528 793,529 793,530 792,531 792,532 791,533 791,534 790,535 790,536 789,537 789,538 788,539 788,540 787,541 787,542 786,543 786,544 785,545 785,546 783,548 783,549 782,550 782,551 780,553 780,554 778,556 778,557 776,559 776,560 772,564 772,565 768,569 768,570 761,577 761,578 752,587 752,588 751,589 750,589 750,590 744,596 744,597 740,601 740,602 739,603 739,604 738,605 738,606 737,607 737,608 736,609 736,610 735,611 735,613 734,614 734,619 733,620 733,663 732,664 732,670 731,671 731,679 730,680 730,685 729,686 729,689 728,690 728,692 727,693 727,697 726,698 726,699 725,700 725,704 724,705 724,706 723,707 723,709 722,710 722,711 721,712 721,714 719,716 719,718 717,720 717,722 715,724 715,725 714,726 714,727 713,728 713,729 711,731 711,732 709,734 709,735 706,738 706,739 703,742 703,743 689,757 688,757 685,760 684,760 684,761 683,762 682,762 680,764 679,764 678,765 677,765 674,768 672,768 670,770 669,770 668,771 667,771 666,772 665,772 664,773 663,773 662,774 661,774 660,775 659,775 658,776 656,776 655,777 653,777 651,779 649,779 648,780 645,780 644,781 641,781 640,782 638,782 637,783 633,783 632,784 627,784 626,785 621,785 620,786 616,786 615,787 585,787 584,786 575,786 574,785 568,785 567,784 564,784 563,783 557,783 556,782 554,782 553,781 547,781 546,780 544,780 543,779 536,779 535,778 527,778 526,777 496,777 495,778 488,778 487,779 480,779 479,780 477,780 476,781 470,781 469,782 465,782 464,783 461,783 460,784 454,784 453,785 447,785 446,786 439,786 438,787 409,787 408,786 403,786 402,785 396,785 395,784 391,784 390,783 386,783 385,782 383,782 382,781 379,781 378,780 377,780 376,779 373,779 372,778 371,778 370,777 367,777 365,775 364,775 363,774 361,774 360,773 359,773 358,772 357,772 356,771 355,771 354,770 353,770 351,768 350,768 349,767 348,767 346,765 345,765 343,763 342,763 339,760 338,760 334,756 333,756 321,744 321,743 317,739 317,738 314,735 314,734 312,732 312,731 310,729 310,728 309,727 309,726 307,724 307,723 306,722 306,721 305,720 305,718 303,716 303,715 302,714 302,712 301,711 301,710 300,709 300,707 299,706 299,705 298,704 298,701 297,700 297,698 296,697 296,695 295,694 295,689 294,688 294,687 293,686 293,679 292,678 292,671 291,670 291,664 290,663 290,619 289,618 289,613 288,612 288,611 287,610 287,608 286,607 286,606 284,604 284,603 283,602 283,601 279,597 279,596 271,588 271,587 262,578 262,577 256,571 256,570 251,565 251,564 248,561 248,560 246,558 246,557 243,554 243,553 241,551 241,550 240,549 240,548 238,546 238,545 237,544 237,543 236,542 236,541 235,540 235,539 234,538 234,537 233,536 233,535 232,534 232,533 231,532 231,531 230,530 230,528 229,527 229,525 228,524 228,523 227,522 227,520 226,519 226,517 225,516 225,514 224,513 224,511 223,510 223,505 222,504 222,499 221,498 221,493 220,492 220,468 221,467 221,462 222,461 222,457 223,456 223,452 224,451 224,450 225,449 225,446 226,445 226,443 227,442 227,440 229,438 229,436 230,435 230,434 231,433 231,432 232,431 232,430 234,428 234,427 235,426 235,425 236,424 236,423 238,421 238,420 240,418 240,417 244,413 244,412 255,401 256,401 261,396 262,396 264,394 265,394 266,393 267,393 269,391 270,391 272,389 273,389 274,388 275,388 276,387 277,387 278,386 279,386 280,385 281,385 282,384 284,384 285,383 286,383 287,382 291,382 292,381 294,381 295,380 299,380 300,379 304,379 305,378 309,378 310,377 311,377 312,376 313,376 315,374 316,374 318,372 318,371 320,369 320,367 321,366 321,364 322,363 322,358 323,357 323,354 324,353 324,350 325,349 325,344 326,343 326,341 327,340 327,339 328,338 328,335 329,334 329,333 330,332 330,330 331,329 331,327 333,325 333,323 335,321 335,319 337,317 337,316 338,315 338,314 339,313 339,312 341,310 341,309 343,307 343,306 346,303 346,302 349,299 349,298 350,297 351,297 351,296 360,287 361,287 367,281 368,281 371,278 372,278 373,277 374,277 376,275 377,275 379,273 380,273 381,272 382,272 384,270 385,270 386,269 388,269 389,268 390,268 391,267 393,267 394,266 395,266 396,265 398,265 399,264 402,264 403,263 405,263 406,262 409,262 410,261" stroke="#000000" /><polygon fill="#000000" points="509,464 508,465 496,465 495,466 489,466 488,467 484,467 483,468 480,468 479,469 477,469 476,470 473,470 472,471 470,471 469,472 468,472 467,473 465,473 464,474 463,474 462,475 461,475 460,476 458,476 457,477 456,477 455,478 454,478 452,480 451,480 450,481 449,481 446,484 445,484 443,486 442,486 440,488 439,488 435,492 434,492 423,503 423,504 419,508 419,509 417,511 417,512 414,515 414,516 412,518 412,519 410,521 410,522 408,524 408,525 407,526 407,527 405,529 405,530 404,531 404,532 402,534 402,535 400,537 400,538 397,541 397,542 385,554 384,554 381,557 380,557 378,559 377,559 375,561 374,561 371,564 370,564 368,566 367,566 366,567 365,567 361,571 360,571 356,575 355,575 349,581 349,582 344,587 344,588 342,590 342,591 339,594 339,595 338,596 338,597 337,598 337,599 336,600 336,601 335,602 335,603 334,604 334,605 333,606 333,607 332,608 332,610 331,611 331,613 330,614 330,616 329,617 329,622 328,623 328,624 327,625 327,631 326,632 326,658 327,659 327,663 328,664 328,669 329,670 329,674 330,675 330,678 331,679 331,682 332,683 332,684 333,685 333,687 334,688 334,690 335,691 335,692 336,693 336,694 337,695 337,697 339,699 339,700 340,701 340,702 341,703 341,704 343,706 343,707 345,709 345,710 347,712 347,713 351,717 351,718 361,728 362,728 366,732 367,732 368,733 369,733 370,734 370,735 371,735 372,736 373,736 374,737 375,737 377,739 379,739 381,741 382,741 383,742 385,742 386,743 387,743 388,744 389,744 390,745 393,745 395,747 399,747 400,748 403,748 404,749 407,749 408,750 413,750 414,751 443,751 444,750 450,750 451,749 455,749 456,748 460,748 461,747 463,747 464,746 466,746 467,745 470,745 471,744 474,744 475,743 477,743 478,742 480,742 481,741 483,741 484,740 487,740 488,739 493,739 494,738 499,738 500,737 524,737 525,738 529,738 530,739 535,739 536,740 539,740 540,741 542,741 543,742 545,742 546,743 549,743 550,744 552,744 553,745 555,745 556,746 559,746 560,747 562,747 563,748 567,748 568,749 572,749 573,750 577,750 578,751 610,751 611,750 614,750 615,749 619,749 620,748 623,748 624,747 626,747 627,746 629,746 630,745 632,745 633,744 635,744 636,743 638,743 639,742 640,742 641,741 642,741 644,739 646,739 647,738 648,738 650,736 651,736 652,735 653,735 657,731 658,731 661,728 662,728 672,718 672,717 676,713 676,712 679,709 679,708 681,706 681,705 682,704 682,703 684,701 684,700 685,699 685,698 686,697 686,696 687,695 687,693 688,692 688,691 689,690 689,688 690,687 690,685 691,684 691,683 692,682 692,679 693,678 693,675 694,674 694,670 695,669 695,665 696,664 696,658 697,657 697,631 696,630 696,625 695,624 695,620 694,619 694,616 693,615 693,613 692,612 692,610 691,609 691,608 690,607 690,605 688,603 688,601 687,600 687,599 686,598 686,597 684,595 684,594 683,593 683,592 681,590 681,589 678,586 678,585 666,573 665,573 662,570 661,570 659,568 658,568 655,565 654,565 652,563 651,563 649,561 648,561 645,558 644,558 642,556 641,556 638,553 637,553 628,544 628,543 624,539 624,538 621,535 621,534 619,532 619,531 618,530 618,529 616,527 616,526 615,525 615,524 613,522 613,521 612,520 612,519 610,517 610,516 607,513 607,512 605,510 605,509 600,504 600,503 588,491 587,491 583,487 582,487 580,485 579,485 577,483 576,483 575,482 574,482 571,479 570,479 569,478 567,478 566,477 565,477 564,476 563,476 562,475 561,475 560,474 559,474 558,473 556,473 555,472 554,472 553,471 551,471 550,470 547,470 546,469 544,469 543,468 540,468 539,467 535,467 534,466 528,466 527,465 518,465 517,464" stroke="#000000" /><polygon fill="#ffffff" points="494,475 495,474 526,474 527,475 534,475 535,476 537,476 538,477 542,477 543,478 545,478 546,479 549,479 551,481 554,481 556,483 558,483 560,485 562,485 564,487 566,487 568,489 569,489 571,491 572,491 573,492 574,492 577,495 578,495 583,500 584,500 591,507 591,508 597,514 597,515 599,517 599,518 602,521 602,522 604,524 604,525 606,527 606,528 607,529 607,530 609,532 609,533 610,534 610,535 612,537 612,538 613,539 613,540 615,542 615,543 619,547 619,548 632,561 633,561 637,565 638,565 640,567 641,567 643,569 644,569 646,571 647,571 649,573 650,573 652,575 653,575 656,578 657,578 662,583 663,583 664,584 664,585 665,585 668,588 668,589 673,594 673,595 675,597 675,598 677,600 677,601 678,602 678,603 679,604 679,605 680,606 680,607 681,608 681,609 682,610 682,612 683,613 683,615 684,616 684,618 685,619 685,622 686,623 686,627 687,628 687,635 688,636 688,654 687,655 687,662 686,663 686,667 685,668 685,673 684,674 684,675 683,676 683,679 682,680 682,681 681,682 681,685 679,687 679,689 678,690 678,692 677,693 677,694 676,695 676,696 674,698 674,699 673,700 673,701 671,703 671,704 668,707 668,708 662,714 662,715 661,716 660,716 660,717 659,718 658,718 652,724 651,724 648,727 647,727 646,728 645,728 643,730 642,730 641,731 640,731 639,732 638,732 637,733 636,733 635,734 634,734 633,735 631,735 630,736 629,736 628,737 626,737 625,738 623,738 622,739 620,739 619,740 616,740 615,741 609,741 608,742 599,742 598,743 586,743 585,742 577,742 576,741 572,741 571,740 568,740 567,739 565,739 564,738 561,738 560,737 557,737 556,736 554,736 553,735 550,735 549,734 548,734 547,733 544,733 543,732 539,732 538,731 535,731 534,730 531,730 530,729 524,729 523,728 499,728 498,729 493,729 492,730 487,730 486,731 484,731 483,732 480,732 479,733 476,733 475,734 473,734 472,735 469,735 468,736 466,736 465,737 462,737 461,738 460,738 459,739 456,739 455,740 451,740 450,741 446,741 445,742 436,742 435,743 424,743 423,742 413,742 412,741 408,741 407,740 405,740 404,739 401,739 400,738 397,738 395,736 392,736 391,735 390,735 389,734 388,734 387,733 386,733 385,732 384,732 383,731 382,731 381,730 380,730 378,728 377,728 376,727 375,727 372,724 371,724 365,718 364,718 363,717 363,716 362,716 361,715 361,714 355,708 355,707 352,704 352,703 350,701 350,700 349,699 349,698 348,697 348,696 346,694 346,692 345,691 345,690 344,689 344,687 343,686 343,685 342,684 342,683 341,682 341,679 340,678 340,676 339,675 339,673 338,672 338,669 337,668 337,663 336,662 336,659 335,658 335,633 336,632 336,628 337,627 337,624 338,623 338,619 339,618 339,616 340,615 340,614 341,613 341,611 342,610 342,608 344,606 344,604 346,602 346,601 347,600 347,599 350,596 350,595 352,593 352,592 366,578 367,578 369,576 370,576 373,573 374,573 376,571 377,571 379,569 380,569 381,568 382,568 384,566 385,566 388,563 389,563 394,558 395,558 398,555 398,554 405,547 405,546 408,543 408,542 410,540 410,539 412,537 412,536 413,535 413,534 415,532 415,531 416,530 416,529 418,527 418,526 419,525 419,524 421,522 421,521 424,518 424,517 427,514 427,513 433,507 433,506 434,505 435,505 435,504 436,503 437,503 437,502 438,501 439,501 444,496 445,496 449,492 450,492 452,490 453,490 454,489 455,489 457,487 458,487 459,486 460,486 461,485 462,485 463,484 464,484 465,483 466,483 467,482 469,482 470,481 471,481 472,480 474,480 475,479 477,479 478,478 480,478 481,477 484,477 485,476 488,476 489,475" stroke="#000000" /><polygon fill="#ffffff" points="467,560 466,561 461,561 460,562 459,562 458,563 457,563 456,564 455,564 454,565 453,565 452,566 451,566 442,575 442,576 440,578 440,579 439,580 439,581 438,582 438,584 437,585 437,587 436,588 436,593 435,594 435,602 436,603 436,609 437,610 437,613 438,614 438,616 439,617 439,619 440,620 440,621 441,622 441,624 442,625 442,626 443,627 443,628 444,629 444,630 445,631 445,632 447,634 447,635 449,637 449,638 452,641 452,642 455,645 455,646 461,652 461,653 472,664 473,664 479,670 480,670 485,675 486,675 488,677 489,677 492,680 493,680 496,683 497,683 498,684 499,684 502,687 504,687 506,689 507,689 508,690 509,690 510,691 513,691 514,690 516,690 518,688 519,688 520,687 521,687 523,685 524,685 525,684 526,684 529,681 530,681 532,679 533,679 536,676 537,676 541,672 542,672 549,665 550,665 562,653 562,652 563,651 564,651 564,650 568,646 568,645 571,642 571,641 574,638 574,637 576,635 576,634 578,632 578,631 579,630 579,629 580,628 580,627 581,626 581,625 582,624 582,623 583,622 583,620 584,619 584,617 585,616 585,615 586,614 586,610 587,609 587,602 588,601 588,597 587,596 587,588 586,587 586,585 585,584 585,583 584,582 584,580 582,578 582,577 581,576 581,575 579,573 579,572 578,572 577,571 577,570 576,570 575,569 575,568 574,568 572,566 571,566 569,564 568,564 567,563 565,563 564,562 563,562 562,561 557,561 556,560 542,560 541,561 539,561 538,562 535,562 533,564 532,564 531,565 530,565 529,566 528,566 526,568 525,568 516,577 516,578 514,580 514,582 513,583 511,583 509,581 509,580 507,578 507,577 505,575 505,574 501,570 500,570 496,566 495,566 494,565 493,565 492,564 491,564 490,563 489,563 488,562 485,562 484,561 481,561 480,560" stroke="#000000" /><polygon fill="#000000" points="717,420 716,421 712,421 711,422 707,422 705,424 703,424 702,425 700,425 699,426 698,426 697,427 696,427 695,428 694,428 692,430 691,430 690,431 689,431 686,434 685,434 671,448 671,449 668,452 668,453 666,455 666,456 665,457 665,458 663,460 663,461 662,462 662,464 660,466 660,468 659,469 659,470 658,471 658,474 657,475 657,476 656,477 656,480 655,481 655,484 654,485 654,491 653,492 653,510 654,511 654,516 655,517 655,519 656,520 656,522 657,523 657,525 658,526 658,527 659,528 659,530 661,532 661,533 663,535 663,536 672,545 673,545 677,549 678,549 679,550 680,550 681,551 683,551 684,552 685,552 686,553 688,553 689,554 692,554 693,555 697,555 698,556 708,556 709,555 714,555 715,554 718,554 719,553 721,553 722,552 724,552 725,551 726,551 727,550 729,550 730,549 731,549 733,547 734,547 735,546 736,546 738,544 739,544 742,541 743,541 755,529 755,528 757,526 757,525 760,522 760,521 762,519 762,518 763,517 763,516 765,514 765,513 766,512 766,511 767,510 767,508 769,506 769,503 770,502 770,501 771,500 771,497 772,496 772,493 773,492 773,487 774,486 774,463 773,462 773,459 772,458 772,455 771,454 771,452 770,451 770,450 769,449 769,448 768,447 768,446 767,445 767,444 765,442 765,441 762,438 762,437 755,430 754,430 752,428 751,428 749,426 748,426 747,425 746,425 745,424 744,424 743,423 742,423 741,422 738,422 737,421 734,421 733,420" stroke="#000000" /><polygon fill="#ffffff" points="719,429 720,428 729,428 730,429 735,429 736,430 738,430 739,431 740,431 741,432 742,432 743,433 744,433 745,434 746,434 749,437 750,437 751,438 751,439 752,439 753,440 753,441 754,441 755,442 755,443 758,446 758,447 760,449 760,450 761,451 761,452 762,453 762,455 763,456 763,458 764,459 764,462 765,463 765,469 766,470 766,481 765,482 765,488 764,489 764,492 763,493 763,495 762,496 762,498 761,499 761,501 760,502 760,503 759,504 759,505 758,506 758,507 757,508 757,509 756,510 756,511 755,512 755,513 754,514 754,515 752,517 752,518 749,521 749,522 738,533 737,533 734,536 733,536 730,539 729,539 728,540 727,540 726,541 725,541 724,542 723,542 722,543 721,543 720,544 718,544 717,545 715,545 714,546 710,546 709,547 698,547 697,546 692,546 691,545 690,545 689,544 687,544 686,543 685,543 684,542 683,542 681,540 680,540 679,539 679,538 678,538 670,530 670,529 668,527 668,526 667,525 667,524 666,523 666,522 665,521 665,519 664,518 664,517 663,516 663,512 662,511 662,504 661,503 661,498 662,497 662,489 663,488 663,484 664,483 664,481 665,480 665,478 666,477 666,475 667,474 667,473 668,472 668,470 669,469 669,468 670,467 670,466 672,464 672,463 673,462 673,461 674,460 674,459 676,457 676,456 679,453 679,452 688,443 689,443 693,439 694,439 695,438 696,438 698,436 699,436 700,435 701,435 703,433 705,433 706,432 707,432 708,431 710,431 711,430 714,430 715,429" stroke="#000000" /><polygon fill="#000000" points="290,420 289,421 285,421 284,422 282,422 281,423 279,423 278,424 277,424 276,425 275,425 273,427 272,427 270,429 269,429 266,432 265,432 265,433 264,434 263,434 263,435 258,440 258,441 256,443 256,444 255,445 255,446 254,447 254,448 253,449 253,450 252,451 252,453 251,454 251,457 250,458 250,461 249,462 249,485 250,486 250,491 251,492 251,496 252,497 252,500 253,501 253,503 254,504 254,505 255,506 255,507 256,508 256,510 257,511 257,512 258,513 258,514 259,515 259,516 261,518 261,519 263,521 263,522 265,524 265,525 268,528 268,529 280,541 281,541 285,545 286,545 287,546 288,546 289,547 290,547 292,549 294,549 295,550 296,550 297,551 299,551 300,552 301,552 302,553 305,553 306,554 309,554 310,555 315,555 316,556 323,556 324,555 330,555 331,554 334,554 335,553 337,553 338,552 339,552 340,551 342,551 344,549 345,549 346,548 347,548 350,545 351,545 359,537 359,536 361,534 361,533 363,531 363,530 364,529 364,528 365,527 365,525 366,524 366,523 367,522 367,519 368,518 368,516 369,515 369,511 370,510 370,491 369,490 369,484 368,483 368,481 367,480 367,478 366,477 366,475 365,474 365,472 364,471 364,470 363,469 363,467 362,466 362,465 361,464 361,463 360,462 360,461 359,460 359,459 358,458 358,457 356,455 356,454 354,452 354,451 351,448 351,447 338,434 337,434 335,432 334,432 332,430 331,430 330,429 329,429 328,428 327,428 325,426 324,426 323,425 321,425 320,424 319,424 318,423 316,423 315,422 313,422 312,421 307,421 306,420" stroke="#000000" /><polygon fill="#ffffff" points="292,429 293,428 303,428 304,429 308,429 309,430 312,430 313,431 315,431 316,432 318,432 319,433 320,433 322,435 324,435 326,437 327,437 329,439 330,439 334,443 335,443 344,452 344,453 347,456 347,457 349,459 349,460 351,462 351,464 353,466 353,468 355,470 355,471 356,472 356,474 357,475 357,477 358,478 358,480 359,481 359,483 360,484 360,488 361,489 361,497 362,498 362,505 361,506 361,512 360,513 360,516 359,517 359,518 358,519 358,521 357,522 357,523 356,524 356,525 354,527 354,528 353,529 353,530 344,539 343,539 340,542 339,542 338,543 337,543 336,544 335,544 334,545 331,545 330,546 325,546 324,547 316,547 315,546 309,546 308,545 306,545 305,544 303,544 302,543 301,543 300,542 299,542 298,541 297,541 295,539 293,539 291,537 290,537 286,533 285,533 274,522 274,521 271,518 271,517 269,515 269,514 268,513 268,512 266,510 266,508 265,507 265,506 264,505 264,504 263,503 263,501 262,500 262,499 261,498 261,495 260,494 260,492 259,491 259,488 258,487 258,481 257,480 257,469 258,468 258,463 259,462 259,458 260,457 260,456 261,455 261,453 262,452 262,451 263,450 263,449 264,448 264,447 267,444 267,443 275,435 276,435 278,433 279,433 280,432 282,432 283,431 284,431 285,430 287,430 288,429" stroke="#000000" /><polygon fill="#000000" points="595,290 594,291 590,291 589,292 585,292 584,293 583,293 582,294 580,294 579,295 577,295 576,296 575,296 574,297 573,297 572,298 571,298 569,300 568,300 566,302 565,302 562,305 561,305 556,310 555,310 555,311 554,312 553,312 553,313 547,319 547,320 544,323 544,324 542,326 542,327 541,328 541,329 539,331 539,332 538,333 538,334 537,335 537,337 535,339 535,341 534,342 534,344 533,345 533,346 532,347 532,350 531,351 531,353 530,354 530,356 529,357 529,363 528,364 528,368 527,369 527,385 528,386 528,394 529,395 529,399 530,400 530,403 531,404 531,407 532,408 532,409 533,410 533,412 534,413 534,414 535,415 535,417 537,419 537,420 538,421 538,422 540,424 540,425 541,426 541,427 545,431 545,432 553,440 554,440 557,443 558,443 560,445 562,445 564,447 565,447 566,448 567,448 568,449 570,449 571,450 572,450 573,451 577,451 578,452 581,452 582,453 589,453 590,454 595,454 596,453 603,453 604,452 607,452 608,451 611,451 612,450 613,450 614,449 616,449 617,448 618,448 619,447 620,447 621,446 622,446 623,445 624,445 625,444 626,444 628,442 629,442 631,440 632,440 635,437 636,437 644,429 644,428 648,424 648,423 651,420 651,419 653,417 653,416 654,415 654,414 655,413 655,412 657,410 657,409 658,408 658,407 659,406 659,404 660,403 660,402 661,401 661,399 662,398 662,396 663,395 663,392 664,391 664,388 665,387 665,384 666,383 666,378 667,377 667,353 666,352 666,346 665,345 665,342 664,341 664,338 663,337 663,335 662,334 662,333 661,332 661,330 660,329 660,328 659,327 659,326 658,325 658,324 657,323 657,322 655,320 655,319 652,316 652,315 649,312 649,311 642,304 641,304 638,301 637,301 635,299 634,299 633,298 632,298 631,297 630,297 628,295 626,295 625,294 623,294 622,293 621,293 620,292 617,292 616,291 612,291 611,290" stroke="#000000" /><polygon fill="#ffffff" points="598,299 599,298 605,298 606,299 612,299 613,300 616,300 617,301 620,301 621,302 622,302 623,303 624,303 625,304 626,304 627,305 628,305 630,307 631,307 633,309 634,309 645,320 645,321 648,324 648,325 649,326 649,327 651,329 651,331 652,332 652,333 653,334 653,335 654,336 654,338 655,339 655,341 656,342 656,344 657,345 657,350 658,351 658,358 659,359 659,370 658,371 658,378 657,379 657,383 656,384 656,388 655,389 655,391 654,392 654,394 653,395 653,397 652,398 652,399 651,400 651,401 650,402 650,403 649,404 649,405 648,406 648,407 647,408 647,409 646,410 646,411 644,413 644,414 641,417 641,418 638,421 638,422 630,430 629,430 626,433 625,433 622,436 621,436 620,437 619,437 618,438 617,438 616,439 615,439 614,440 613,440 612,441 610,441 609,442 607,442 606,443 602,443 601,444 593,444 592,445 591,444 581,444 580,443 577,443 576,442 575,442 574,441 572,441 571,440 570,440 569,439 568,439 567,438 566,438 563,435 562,435 559,432 558,432 551,425 551,424 548,421 548,420 546,418 546,417 545,416 545,415 544,414 544,413 543,412 543,411 542,410 542,408 541,407 541,406 540,405 540,403 539,402 539,400 538,399 538,395 537,394 537,389 536,388 536,369 537,368 537,362 538,361 538,358 539,357 539,354 540,353 540,351 541,350 541,347 543,345 543,343 544,342 544,341 545,340 545,339 546,338 546,337 548,335 548,334 549,333 549,332 551,330 551,329 553,327 553,326 555,324 555,323 556,322 557,322 557,321 564,314 565,314 569,310 570,310 572,308 573,308 575,306 576,306 577,305 578,305 579,304 580,304 581,303 582,303 583,302 585,302 586,301 588,301 589,300 592,300 593,299" stroke="#000000" /><polygon fill="#000000" points="411,290 410,291 407,291 406,292 403,292 402,293 400,293 399,294 397,294 395,296 393,296 392,297 391,297 389,299 388,299 387,300 386,300 384,302 383,302 373,312 373,313 370,316 370,317 368,319 368,320 366,322 366,323 365,324 365,325 364,326 364,327 363,328 363,329 362,330 362,331 361,332 361,334 360,335 360,336 359,337 359,340 358,341 358,344 357,345 357,349 356,350 356,362 355,363 355,369 356,370 356,379 357,380 357,384 358,385 358,388 359,389 359,392 360,393 360,395 361,396 361,399 362,400 362,401 363,402 363,404 364,405 364,406 365,407 365,408 366,409 366,410 367,411 367,412 368,413 368,414 369,415 369,416 371,418 371,419 373,421 373,422 377,426 377,427 387,437 388,437 392,441 393,441 395,443 396,443 397,444 398,444 399,445 400,445 402,447 404,447 405,448 406,448 407,449 409,449 410,450 411,450 412,451 415,451 416,452 420,452 421,453 429,453 430,454 436,454 437,453 441,453 442,452 446,452 447,451 449,451 450,450 452,450 453,449 455,449 456,448 457,448 458,447 459,447 460,446 461,446 463,444 464,444 466,442 467,442 471,438 472,438 475,435 475,434 480,429 480,428 483,425 483,424 484,423 484,422 486,420 486,419 487,418 487,417 488,416 488,415 489,414 489,413 490,412 490,410 491,409 491,408 492,407 492,404 493,403 493,400 494,399 494,395 495,394 495,386 496,385 496,371 495,370 495,364 494,363 494,359 493,358 493,355 492,354 492,351 491,350 491,348 490,347 490,345 489,344 489,343 488,342 488,340 487,339 487,338 486,337 486,336 485,335 485,334 484,333 484,332 483,331 483,330 482,329 482,328 480,326 480,325 478,323 478,322 476,320 476,319 462,305 461,305 459,303 458,303 455,300 454,300 453,299 452,299 450,297 449,297 448,296 446,296 445,295 444,295 443,294 441,294 440,293 438,293 437,292 435,292 434,291 428,291 427,290" stroke="#000000" /><polygon fill="#ffffff" points="415,299 416,298 424,298 425,299 431,299 432,300 434,300 435,301 438,301 440,303 442,303 444,305 446,305 447,306 448,306 449,307 450,307 452,309 453,309 457,313 458,313 465,320 465,321 466,321 467,322 467,323 469,325 469,326 472,329 472,330 473,331 473,332 475,334 475,335 477,337 477,338 478,339 478,341 479,342 479,343 480,344 480,345 481,346 481,348 482,349 482,351 483,352 483,354 484,355 484,358 485,359 485,363 486,364 486,370 487,371 487,388 486,389 486,394 485,395 485,398 484,399 484,401 483,402 483,405 482,406 482,407 481,408 481,410 480,411 480,412 479,413 479,414 478,415 478,416 476,418 476,419 474,421 474,422 471,425 471,426 466,431 465,431 460,436 459,436 457,438 456,438 455,439 454,439 453,440 452,440 451,441 449,441 448,442 447,442 446,443 443,443 442,444 436,444 435,445 429,445 428,444 421,444 420,443 416,443 415,442 414,442 413,441 411,441 410,440 409,440 408,439 407,439 406,438 405,438 404,437 403,437 402,436 401,436 398,433 397,433 393,429 392,429 384,421 384,420 380,416 380,415 378,413 378,412 377,411 377,410 375,408 375,407 374,406 374,405 373,404 373,402 372,401 372,400 371,399 371,398 370,397 370,396 369,395 369,393 368,392 368,390 367,389 367,385 366,384 366,381 365,380 365,372 364,371 364,358 365,357 365,350 366,349 366,346 367,345 367,342 368,341 368,339 369,338 369,336 370,335 370,334 371,333 371,331 373,329 373,327 375,325 375,324 377,322 377,321 389,309 390,309 392,307 393,307 395,305 396,305 397,304 398,304 400,302 402,302 403,301 405,301 406,300 409,300 410,299" stroke="#000000" /></svg>